<svg width="96" height="96" viewBox="0 0 96 96" fill="none" xmlns="http://www.w3.org/2000/svg">
<path d="M77.52 96H96C96 43.0933 52.92 0 0 0V18.4076C42.72 18.4076 77.52 53.2114 77.52 96ZM44.88 96H63.36C63.36 61.0743 34.92 32.6095 0 32.6095V51.0171C12 51.0171 23.22 55.7105 31.74 64.1829C40.2 72.6552 44.88 83.9924 44.88 96ZM12.78 95.8781C19.8 95.8781 25.56 90.2095 25.56 83.1391C25.56 76.1295 19.8 70.4 12.78 70.4C5.7 70.4 0 76.1295 0 83.1391C0 90.2095 5.7 95.8781 12.78 95.8781Z" fill="black"/>
</svg>
